<?xml version="1.0" encoding="utf-8"?>
<!-- Generator: Adobe Illustrator 19.2.1, SVG Export Plug-In . SVG Version: 6.00 Build 0)  -->
<svg version="1.1" id="Layer_1" xmlns="http://www.w3.org/2000/svg" xmlns:xlink="http://www.w3.org/1999/xlink" x="0px" y="0px"
	 viewBox="0 0 300 80" style="enable-background:new 0 0 300 80;" xml:space="preserve">
<style type="text/css">
	.st0{fill:#404344;}
	.st1{fill:#37B34A;}
</style>
<g>
	<path class="st0" d="M110.3,40c0-8.2,3.4-15.2,13.2-15.2c9.8,0,13.2,7,13.2,15.2c0,8.2-3.4,15.2-13.2,15.2
		C113.7,55.2,110.3,48.2,110.3,40 M116.5,40c0,4.8,1,9.3,7.1,9.3c6.1,0,7.1-4.5,7.1-9.3c0-4.8-1-9.3-7.1-9.3
		C117.5,30.7,116.5,35.2,116.5,40 M265.9,25.5l5.4,9l5.4-9h7.3l-8.8,13.9l9.5,15.1h-7.3l-6.1-10.2l-6.1,10.2h-7.3l9.5-15.1
		l-8.8-13.9H265.9z M239.2,37.1h11.4v5.6h-11.4v6.1h13.5v5.9H233V25.5h19.6v5.9h-13.5V37.1z M213,54.5V31.4h-8v-5.9h22.1v5.9h-8
		v23.1H213z M181,54.5h-5.9v-29h6.2v17.8l11.5-17.8h5.9v29h-6.2V36.7L181,54.5z M140.3,48.8c2.6,0.1,4.3-1,4.9-3.4
		c1.7-6.3,1.9-13.4,2.8-19.9h18.7v29h-6.2V31.4h-7c-0.4,4-1.1,11.1-2.3,15.5c-1.3,5-5.4,8.1-10.9,7.8V48.8z M80.8,54.5v-29h22.6v29
		h-6.2V31.4H87v23.1H80.8z"/>
	<path id="path3801_1_" class="st1" d="M42.4,12.4c-4.7,0-12.4,0.2-16.9,0.7c-6.2,0.7-8.7,4-9.3,9.8c-0.5,4.5-0.9,11-0.9,17c0,6,0.1,12.6,0.9,17c1,5.8,3.7,8.9,9.3,9.8
		c4.5,0.7,12.7,0.7,16.9,0.7s12.5,0,16.9-0.7c5.6-0.9,8.3-4,9.3-9.8c0.8-4.4,0.9-11.2,0.9-17S69,26.6,68.6,23c-0.6-6-3.2-9-9.3-9.8
		C54.8,12.6,47.1,12.4,42.4,12.4z M61.4,18.7c1.2,0.5,3.3,3.6,2.8,7c-2.3,1.9-5.2,3.2-7.9,3.7v21.8h8.1c0,3.3-0.5,6-1.1,7H48.6V29.7
		H38.2v17c0,8.5-4.8,12.8-11,12.8c-1.7,0-3.8-0.2-5.6-0.7c-0.8-1.1-1.2-4.4-1.3-8.5c4.1,2,9.6,2.9,10.1-3.5V30.8
		c-6.2,0.7-8.5,5-10.6,7.9c0-3.9,0.3-7.4,0.4-9.8c4.3-4.6,9-6.7,18.4-6.7h13.4C55.3,22.2,58.5,21,61.4,18.7z"/>
</g>
</svg>
