<?xml version="1.0" encoding="utf-8"?>
<!-- Generator: Adobe Illustrator 19.2.1, SVG Export Plug-In . SVG Version: 6.00 Build 0)  -->
<svg version="1.1" id="Layer_1" xmlns="http://www.w3.org/2000/svg" xmlns:xlink="http://www.w3.org/1999/xlink" x="0px" y="0px"
	 viewBox="0 0 300 80" style="enable-background:new 0 0 300 80;" xml:space="preserve">
<style type="text/css">
	.st0{fill:#404344;}
	.st1{fill:#37B34A;}
</style>
<g>
	<path class="st0" d="M242.9,39.7c0-3.2,0.5-6.1,2.4-7.7c1.1-1,3-1.4,4.9-1.5c2.3-0.1,4.8,0.3,6.4,0.7l0.6-5.3
		c-1.9-0.4-4.6-0.7-6.6-0.7c-4,0-7,0.9-9.2,2.7c-3.1,2.5-4.6,6.7-4.6,11.8c0,5.2,1.5,9.3,4.6,11.8c2.2,1.8,5.3,2.7,9.2,2.7
		c2,0,4.7-0.3,6.6-0.7l-0.6-5.3c-1.6,0.4-4.1,0.8-6.4,0.7c-1.9-0.1-3.8-0.5-4.9-1.5C243.4,45.7,242.9,42.9,242.9,39.7 M87.2,31.2
		h4.2c2.9,0,5.3,0.3,5.3,4c0,3.6-2.5,4-5.3,4h-4.2V31.2z M103.1,35.2c0-7.1-4.4-9.7-10.9-9.7H81.1v28.3h6.2v-9.1h4.6
		C98.4,44.7,103.1,42.3,103.1,35.2 M115.2,39.7c0,4.7,0.9,9.1,6.9,9.1c6,0,6.9-4.4,6.9-9.1c0-4.7-1-9.1-6.9-9.1
		C116.1,30.5,115.2,35,115.2,39.7 M109.1,39.7c0-8,3.3-14.9,12.9-14.9c9.6,0,12.9,6.8,12.9,14.9c0,8.1-3.3,14.9-12.9,14.9
		C112.4,54.6,109.1,47.7,109.1,39.7 M142.9,25.5v28.3h16.9v-5.7h-10.9V25.5H142.9z M168.1,53.9V41.2l-10-15.7h6.9l6,10l6-10h6.9
		l-10,15.7v12.7H168.1z M194.3,53.9V31.2h-7.8v-5.7h21.6v5.7h-7.8v22.6H194.3z M219.3,36.8h11.2v5.5h-11.2v6h13.2V54h-19.2V25.5
		h19.2v5.7h-13.2V36.8z M262.6,53.9V25.5h6v11.3h10.8V25.5h6v28.3h-6V42.3h-10.8v11.6H262.6z"/>
	<path id="path3801_2_" class="st1" d="M42.4,12.4c-4.7,0-12.4,0.2-16.9,0.7c-6.2,0.7-8.7,4-9.3,9.8c-0.5,4.5-0.9,11-0.9,17c0,6,0.1,12.6,0.9,17c1,5.8,3.7,8.9,9.3,9.8
		c4.5,0.7,12.7,0.7,16.9,0.7c4.2,0,12.5,0,16.9-0.7c5.6-0.9,8.3-4,9.3-9.8c0.8-4.4,0.9-11.2,0.9-17c0-5.8-0.5-13.4-0.9-17
		c-0.6-6-3.2-9-9.3-9.8C54.8,12.6,47.1,12.4,42.4,12.4z M61.4,18.7c1.2,0.5,3.3,3.6,2.8,7c-2.3,1.9-5.2,3.2-7.9,3.7v21.8h8.1
		c0,3.3-0.5,6-1.1,7H48.6V29.7H38.2v17c0,8.5-4.8,12.8-11,12.8c-1.7,0-3.8-0.2-5.6-0.7c-0.8-1.1-1.2-4.4-1.3-8.5
		c4.1,2,9.6,2.9,10.1-3.5V30.8c-6.2,0.7-8.5,5-10.6,7.9c0-3.9,0.3-7.4,0.4-9.8c4.3-4.6,9-6.7,18.4-6.7h13.4
		C55.3,22.2,58.5,21,61.4,18.7z"/>
</g>
</svg>
